<svg xmlns="http://www.w3.org/2000/svg" xmlns:xlink="http://www.w3.org/1999/xlink" font-family="sans-serif" text-anchor="middle" viewBox="0 0 954 600" style="background:#000;border-radius:7px"><text fill="#FAFEFB" cursor="pointer" font-size="71" transform="translate(529,425) rotate(-5)">mining</text><text fill="#F8FDFA" cursor="pointer" font-size="70" transform="translate(463,358) rotate(-5)">years</text><text fill="#EDFBF2" cursor="pointer" font-size="66" opacity="1" transform="translate(597,290) rotate(-5)">price</text><text fill="#FCFEFD" cursor="pointer" font-size="65" opacity="1" transform="translate(458,204) rotate(-5)">blockchain</text><text fill="#F1FBF5" cursor="pointer" font-size="65" opacity="1" transform="translate(416,155) rotate(-5)">bank</text><text fill="#F8FDFA" cursor="pointer" font-size="65" transform="translate(661,244) rotate(-5)">may</text><text fill="#F2FCF6" cursor="pointer" font-size="63" transform="translate(346,432) rotate(-5)">china</text><text fill="#90E3AF" cursor="pointer" font-size="62" transform="translate(377,322) rotate(-5)">reserve</text><text fill="#FEFAFC" cursor="pointer" font-size="62" opacity="1" transform="translate(371,270) rotate(-5)">exchange</text><text fill="#ECFAF1" cursor="pointer" font-size="59" transform="translate(604,339) rotate(-5)">just</text><text fill="#EEFBF3" cursor="pointer" font-size="56" transform="translate(238,238) rotate(-5)">scam</text><text fill="#F0FBF5" cursor="pointer" font-size="55" opacity="1" transform="translate(656,187) rotate(-5)">two</text><text fill="#FAFEFC" cursor="pointer" font-size="55" transform="translate(308,375) rotate(-5)">india</text><text fill="#FDF9FB" cursor="pointer" font-size="54" opacity="1" transform="translate(214,170) rotate(-5)">exchanges</text><text fill="#FAFEFB" cursor="pointer" font-size="54" transform="translate(569,475) rotate(-5)">launches</text><text fill="#EBFAF0" cursor="pointer" font-size="54" transform="translate(225,320) rotate(-5)">buy</text><text fill="#ECFAF2" cursor="pointer" font-size="52" transform="translate(193,378) rotate(-5)">cash</text><text fill="#F9FDFA" cursor="pointer" font-size="50" transform="translate(674,136) rotate(-5)">largest</text><text fill="#FBFEFC" cursor="pointer" font-size="50" transform="translate(403,103) rotate(-5)">billion</text><text fill="#FDFEFD" cursor="pointer" font-size="50" transform="translate(123,282) rotate(-5)">block</text><text fill="#F8FDFA" cursor="pointer" font-size="49" opacity="1" transform="translate(260,128) rotate(-5)">wallets</text><text fill="#FFF" cursor="pointer" font-size="49" transform="translate(541,143) rotate(-5)">size</text><text fill="#FEFFFE" cursor="pointer" font-size="49" transform="translate(588,100) rotate(-5)">volatility</text><text fill="#F9FEFB" cursor="pointer" font-size="47" opacity="1" transform="translate(758,286) rotate(-5)">industry</text><text fill="#FEFFFF" cursor="pointer" font-size="47" transform="translate(705,364) rotate(-5)">companies</text><text fill="#FEFFFE" cursor="pointer" font-size="46" transform="translate(356,476) rotate(-5)">project</text><text fill="#FFF" cursor="pointer" font-size="46" transform="translate(732,402) rotate(-5)">increase</text><text fill="#EDFAF2" cursor="pointer" font-size="45" transform="translate(807,241) rotate(-5)">finance</text><text fill="#FFFEFE" cursor="pointer" font-size="45" transform="translate(534,517) rotate(-5)">transaction</text><text fill="#F2FCF6" cursor="pointer" font-size="45" transform="translate(156,423) rotate(-5)">currencies</text><text fill="#F6FDF8" cursor="pointer" font-size="45" transform="translate(681,329) rotate(-5)">ico</text><text fill="#E3F8EB" cursor="pointer" font-size="44" transform="translate(111,222) rotate(-5)">group</text><text fill="#EDB7CF" cursor="pointer" font-size="44" transform="translate(530,63) rotate(-5)">volatile</text><text fill="#F1FBF5" cursor="pointer" font-size="43" transform="translate(755,447) rotate(-5)">hackers</text><text fill="#FBFEFC" cursor="pointer" font-size="43" transform="translate(538,253) rotate(-5)">fiat</text><text fill="#60D68D" cursor="pointer" font-size="43" transform="translate(819,322) rotate(-5)">btc-e</text><text fill="#FDF9FB" cursor="pointer" font-size="43" transform="translate(735,488) rotate(-5)">concerns</text><text fill="#F8FDFA" cursor="pointer" font-size="42" transform="translate(359,58) rotate(-5)">australia</text><text fill="#FCF3F7" cursor="pointer" font-size="42" transform="translate(217,85) rotate(-5)">come</text><text fill="#FDF9FB" cursor="pointer" font-size="42" transform="translate(196,459) rotate(-5)">bitmain</text><text fill="#F4FCF7" cursor="pointer" font-size="42" transform="translate(580,550) rotate(-5)">interest</text><text fill="#C3F0D4" cursor="pointer" font-size="41" transform="translate(780,203) rotate(-5)">uses</text><text fill="#F6FDF8" cursor="pointer" font-size="40" transform="translate(315,519) rotate(-5)">launched</text><text fill="#F6FDF9" cursor="pointer" font-size="39" transform="translate(772,82) rotate(-5)">crackdown</text><text fill="#E1F7E9" cursor="pointer" font-size="39" transform="translate(655,47) rotate(-5)">home</text><text fill="#FBEEF3" cursor="pointer" font-size="39" transform="translate(131,132) rotate(-5)">yuan</text><text fill="#FCF2F6" cursor="pointer" font-size="39" transform="translate(781,169) rotate(-5)">mean</text><text fill="#F0FBF4" cursor="pointer" font-size="38" transform="translate(422,553) rotate(-5)">balances</text><text fill="#FDFFFE" cursor="pointer" font-size="38" transform="translate(129,341) rotate(-5)">states</text><text fill="#DBF6E5" cursor="pointer" font-size="38" transform="translate(810,137) rotate(-5)">united</text><text fill="#83DFA6" cursor="pointer" font-size="38" transform="translate(226,56) rotate(-5)">abc</text><text fill="#EBFAF0" cursor="pointer" font-size="38" opacity="1" transform="translate(872,198) rotate(-5)">apps</text><text fill="#FCF3F7" cursor="pointer" font-size="38" transform="translate(877,163) rotate(-5)">asia</text><text fill="#E3F8EB" cursor="pointer" font-size="37" transform="translate(211,492) rotate(-5)">website</text><text fill="#FEFCFD" cursor="pointer" font-size="37" transform="translate(478,29) rotate(-5)">ipo</text><text fill="#FDF8FA" cursor="pointer" font-size="36" transform="translate(804,38) rotate(-5)">predictions</text><text fill="#FDFEFD" cursor="pointer" font-size="36" transform="translate(723,527) rotate(-5)">changes</text><text fill="#FEFFFF" cursor="pointer" font-size="36" transform="translate(783,555) rotate(-5)">insurance</text><text fill="#F2FCF6" cursor="pointer" font-size="36" transform="translate(147,532) rotate(-5)">increased</text><text fill="#FCF4F8" cursor="pointer" font-size="35" transform="translate(272,556) rotate(-5)">involved</text><text fill="#FAEDF3" cursor="pointer" font-size="35" opacity="1" transform="translate(116,61) rotate(-5)">electrum</text><text fill="#E5F8EC" cursor="pointer" font-size="35" transform="translate(100,378) rotate(-5)">slow</text><text fill="#ECFAF2" cursor="pointer" font-size="35" transform="translate(208,203) rotate(-5)">fresh</text><text fill="#F8E5ED" cursor="pointer" font-size="35" transform="translate(869,386) rotate(-5)">check</text><text fill="#FDF8FA" cursor="pointer" font-size="34" opacity="1" transform="translate(890,265) rotate(-5)">apply</text><text fill="#E0F7E9" cursor="pointer" font-size="34" transform="translate(429,387) rotate(-5)">ten</text><text fill="#FDFEFE" cursor="pointer" font-size="34" transform="translate(89,462) rotate(-5)">read</text><text fill="#FDFEFD" cursor="pointer" font-size="34" transform="translate(854,99) rotate(-5)">assange</text><text fill="#F1CADC" cursor="pointer" font-size="33" transform="translate(883,424) rotate(-5)">equal</text><text fill="#FEFDFD" cursor="pointer" font-size="33" transform="translate(93,500) rotate(-5)">julian</text><text fill="#FFFEFE" cursor="pointer" font-size="32" transform="translate(849,514) rotate(-5)">speed</text><text fill="#FCF3F7" cursor="pointer" font-size="32" opacity="1" transform="translate(127,89) rotate(-5)">hash</text><text fill="#FEFFFE" cursor="pointer" font-size="32" transform="translate(310,29) rotate(-5)">prove</text><text fill="#F8E5EE" cursor="pointer" font-size="30" transform="translate(901,302) rotate(-5)">alive</text><text fill="#CBF2DA" cursor="pointer" font-size="30" transform="translate(860,349) rotate(-5)">$900</text><text fill="#FCF2F6" cursor="pointer" font-size="30" transform="translate(138,560) rotate(-5)">cannabis</text><text fill="#E5F8EC" cursor="pointer" font-size="29" transform="translate(868,458) rotate(-5)">saxo</text><text fill="#FCF4F8" cursor="pointer" font-size="29" transform="translate(75,315) rotate(-5)">lists</text><text fill="#FEFCFD" cursor="pointer" font-size="28" transform="translate(484,569) rotate(-5)">egd</text><text fill="#E9A8C5" cursor="pointer" font-size="27" transform="translate(146,27) rotate(-5)">permission</text><text fill="#F7E1EB" cursor="pointer" font-size="25" transform="translate(879,482) rotate(-5)">scammy</text><text fill="#91E3B0" cursor="pointer" font-size="24" transform="translate(868,573) rotate(-5)">waters</text><text fill="#FAFEFB" cursor="pointer" font-size="24" transform="translate(134,307) rotate(-5)">hike</text><text fill="#FDF7F9" cursor="pointer" font-size="24" transform="translate(577,571) rotate(-5)">aerospace</text><text fill="#F6FDF9" cursor="pointer" font-size="23" transform="translate(50,132) rotate(-5)">seattle</text><text fill="#FEFCFD" cursor="pointer" font-size="23" opacity="1" transform="translate(537,216) rotate(-5)">outrageous</text><text fill="#DDF6E6" cursor="pointer" font-size="0" transform="translate(517,301) rotate(-5)">linger</text><text fill="#FEFCFD" cursor="pointer" font-size="0" transform="translate(576,447) rotate(-5)">$415</text><text fill="#FEFCFD" cursor="pointer" font-size="0" transform="translate(703,151) rotate(-5)">reminder</text><text fill="#FEFCFD" cursor="pointer" font-size="0" transform="translate(317,263) rotate(-5)">examined</text><text fill="#4CD17E" cursor="pointer" font-size="0" transform="translate(591,287) rotate(-5)">municipalities</text><text fill="#F3FCF6" cursor="pointer" font-size="0" transform="translate(400,388) rotate(-5)">hesistant</text><text fill="#CC3879" cursor="pointer" font-size="0" transform="translate(360,229) rotate(-5)">synaphea</text></svg>